<svg width="60" height="61" viewBox="0 0 60 61" fill="none" xmlns="http://www.w3.org/2000/svg">
<path opacity="0.21" fill-rule="evenodd" clip-rule="evenodd" d="M0 30.3721V37.3721C0 50.0746 10.2975 60.3721 23 60.3721H30H37C49.7025 60.3721 60 50.0746 60 37.3721V30.3721V23.3721C60 10.6695 49.7025 0.37207 37 0.37207H30H23C10.2975 0.37207 0 10.6695 0 23.3721V30.3721Z" fill="#FEC53D"/>
<path fill-rule="evenodd" clip-rule="evenodd" d="M15 24.6882L27.9005 32.1363C28.0394 32.2165 28.1851 32.2745 28.3333 32.3112V46.7565L15.9201 39.4103C15.3498 39.0728 15 38.4593 15 37.7967V24.6882ZM45 24.4902V37.7967C45 38.4593 44.6502 39.0728 44.0799 39.4103L31.6667 46.7565V32.1847C31.6969 32.1696 31.7269 32.1535 31.7566 32.1363L45 24.4902Z" fill="#FEC53D"/>
<path opacity="0.499209" fill-rule="evenodd" clip-rule="evenodd" d="M15.4053 21.0735C15.5628 20.8745 15.7617 20.7063 15.9936 20.5828L29.1186 13.5922C29.6696 13.2987 30.3305 13.2987 30.8815 13.5922L44.0065 20.5828C44.1852 20.678 44.3444 20.7998 44.4801 20.9417L30.0899 29.2499C29.9953 29.3045 29.9081 29.367 29.8286 29.4361C29.7491 29.367 29.6618 29.3045 29.5672 29.2499L15.4053 21.0735Z" fill="#FEC53D"/>
</svg>
