<svg width="24" height="25" viewBox="0 0 24 25" fill="none" xmlns="http://www.w3.org/2000/svg">
<path d="M16.56 5.81207L15.11 7.26207C16.84 8.31207 18 10.2021 18 12.3721C18 13.9634 17.3679 15.4895 16.2426 16.6147C15.1174 17.7399 13.5913 18.3721 12 18.3721C10.4087 18.3721 8.88258 17.7399 7.75736 16.6147C6.63214 15.4895 6 13.9634 6 12.3721C6 10.2021 7.16 8.31207 8.88 7.25207L7.44 5.81207C5.36 7.25207 4 9.65207 4 12.3721C4 14.4938 4.84285 16.5286 6.34315 18.0289C7.84344 19.5292 9.87827 20.3721 12 20.3721C14.1217 20.3721 16.1566 19.5292 17.6569 18.0289C19.1571 16.5286 20 14.4938 20 12.3721C20 9.65207 18.64 7.25207 16.56 5.81207ZM13 3.37207H11V13.3721H13" fill="black"/>
</svg>
